<?xml version="1.0" encoding="UTF-8"?><svg id="Calque_2" xmlns="http://www.w3.org/2000/svg" viewBox="0 0 64 52.83"><g id="Calque_1-2"><path d="m0,16.84c1.46-1.16,1.74-1.14,3,.27,9.37,10.56,18.75,21.11,28.09,31.7.93,1.05,1.36.56,2.01-.18,9.2-10.38,18.41-20.74,27.6-31.13.91-1.03,1.76-2.02,3.3-1.16v.75c-10.06,11.45-20.12,22.9-30.18,34.36-.11.13-.22.25-.34.37-1.29,1.34-1.64,1.38-2.89-.02-4.08-4.57-8.13-9.16-12.18-13.75C12.45,31.3,6.51,24.54.56,17.8.4,17.62.19,17.49,0,17.34c0-.17,0-.33,0-.5Z"/><path d="m64,1.08c-10.06,11.45-20.12,22.9-30.18,34.35-.14.16-.28.31-.42.46-1.21,1.23-1.56,1.27-2.71-.01-4.11-4.59-8.19-9.22-12.27-13.84C12.45,15.3,6.51,8.54.56,1.8c-.16-.18-.37-.31-.56-.46,0-.17,0-.33,0-.5C1.46-.33,1.74-.31,3,1.1c9.37,10.56,18.75,21.11,28.09,31.69.81.92,1.23.71,1.93-.08,9.19-10.39,18.4-20.75,27.61-31.12.06-.06.12-.12.16-.19.81-1.14,1.76-1.84,3.21-1.08v.75Z"/></g></svg>