<?xml version="1.0" encoding="UTF-8"?><svg id="Calque_2" xmlns="http://www.w3.org/2000/svg" viewBox="0 0 408.55 518.09"><defs><style>.cls-1{fill:none;stroke:#1a301b;stroke-miterlimit:10;stroke-width:2.5px;}</style></defs><g id="Calque_1-2"><line class="cls-1" x1="110.86" y1="513.29" x2="110.86" y2="137.52"/><line class="cls-1" x1="298.51" y1="518.09" x2="298.51" y2="137.9"/><path class="cls-1" d="m255.79,148.95c0-27.72-22.76-50.19-50.83-50.19s-50.83,22.47-50.83,50.19h101.67Z"/><path class="cls-1" d="m298.54,139.3c0-51.31-41.62-83.26-93.59-83.26s-91.33,35.9-94.09,81.48"/><path class="cls-1" d="m226.24,148.95c0-11.61-9.53-21.02-21.29-21.02s-21.29,9.41-21.29,21.02h42.58Z"/><line class="cls-1" x1="204.95" y1="148.95" x2="389.54" y2="50.88"/><line class="cls-1" x1="204.95" y1="148.95" x2="300.97" y2=".68"/><line class="cls-1" x1="204.95" y1="148.95" x2="114.58" y2="9.4"/><line class="cls-1" x1="204.95" y1="148.95" x2="10.35" y2="44.8"/><line class="cls-1" x1="204.95" y1="4.59" x2="204.95" y2="148.95"/><line class="cls-1" y1="149" x2="153.27" y2="149"/><line class="cls-1" x1="255.28" y1="149" x2="408.55" y2="149"/></g></svg>