<?xml version="1.0" encoding="UTF-8"?><svg id="Calque_2" xmlns="http://www.w3.org/2000/svg" viewBox="0 0 402.65 506.13"><defs><style>.cls-1{fill:none;stroke:#1a301b;stroke-miterlimit:10;stroke-width:2.2px;}</style></defs><g id="Calque_1-2"><line class="cls-1" x1="109.26" y1="131.02" x2="109.26" y2="506.13"/><line class="cls-1" x1="294.11" y1="131.39" x2="293.3" y2="504.99"/><path class="cls-1" d="m252.09,142.28c0-27.32-22.43-49.47-50.1-49.47s-50.1,22.15-50.1,49.47h100.2Z"/><path class="cls-1" d="m294.23,132.76c0-50.57-41.02-82.05-92.24-82.05s-90.02,35.39-92.74,80.31"/><line class="cls-1" x1="151.89" y1="142.28" x2="252.09" y2="142.28"/><path class="cls-1" d="m222.98,142.28c0-11.44-9.39-20.72-20.98-20.72s-20.98,9.28-20.98,20.72h41.97Z"/><line class="cls-1" x1="201.99" y1="142.28" x2="383.92" y2="45.62"/><line class="cls-1" x1="201.99" y1="142.28" x2="289.61" y2="6.99"/><line class="cls-1" x1="201.99" y1="142.28" x2="112.93" y2="4.75"/><line class="cls-1" x1="201.99" y1="142.28" x2="17.01" y2="43.28"/><line class="cls-1" x1="201.99" x2="201.99" y2="142.28"/><line class="cls-1" y1="142.33" x2="151.05" y2="142.33"/><line class="cls-1" x1="251.59" y1="142.33" x2="402.65" y2="142.33"/></g></svg>