<?xml version="1.0" encoding="UTF-8"?><svg id="Calque_2" xmlns="http://www.w3.org/2000/svg" viewBox="0 0 54.42 119.19"><defs><style>.cls-1{fill:#1e1f1c;stroke:#1e1f1c;stroke-width:.5px;}.cls-1,.cls-2{stroke-miterlimit:10;}.cls-2{fill:#fff;stroke:#1d1d1c;}</style></defs><g id="Calque_1-2"><path class="cls-2" d="m.59,32.43C-.7,15.4,11.66,1.58,24.96.56c14.79-1.14,30.46,13.56,28.76,32.74-.29,20.82.42,37.37.13,58.19.07,18.31-14.16,26.52-24.8,27.16C14.9,119.51-.09,105.13,1.32,85.95c-.24-17.84-.48-35.68-.72-53.51Z"/><path class="cls-1" d="m47.25,95.09c0,7.85-6.33,11.94-12.18,11.94-13.62,0-11.2-18.45-1.52-18.45,8.3,0,9.38,10.99,4.12,13.83h-.06c3.55-3.05,1.88-11.35-4.06-11.35-10.21,0-9.94,15.44.99,15.44,4.12,0,8.39-3.4,8.39-11.41v-21.56c0-1.52-1.19-1.88-1.82-1.88v-.3h7.97v.3c-.63,0-1.82.36-1.82,1.88v21.56Z"/><path class="cls-1" d="m17.54,26.67l6.57-18.36h.42l9.88,27.68c.75,2.09,2.33,2.9,2.96,2.9v.33h-8.3v-.33c.63,0,1.52-.6.78-2.81l-.06-.18c-1.7-5.08-5.61-8.6-11.82-8.69l-3.14,8.78c-.96,2.66.39,2.9,1.02,2.9v.33h-4.24v-.33c.63,0,1.67-.24,2.63-2.9l3.14-8.75c-5.82.27-10.39,4.84-10.39,11.02s4.33,8.96,8.54,8.96c3.97,0,7.82-2.54,7.82-7.2,0-1.97-.81-2.99-1.4-3.58l.09-.21c.75.48,2.3,1.91,2.3,4.87s-2.3,8.3-8.33,8.3c-5.46,0-9.44-4.36-9.44-11.14,0-6.24,4.93-11.35,10.99-11.59Zm.6,0c3.67.06,8.24,1.7,10.33,5.52l-6.15-17.2-4.18,11.68Z"/><path class="cls-1" d="m43.17,56.86c-.92,3.45-3.31,5.99-7.15,4.36,3.35,3.1,1.83,13.5-5.41,13-4.63-.32-8.33-4.68-7.98-9.69.31-4.5,3.55-7.11,7.55-7.66-7.55-3.05-4.3-10.94,1.55-10.53,3.17.22,3.8,2.59,3.69,3.15l-.08.05c.02-1.06-1.32-2.47-3.1-2.59-4.03-.28-5.52,7.31-.67,9.92-3.48,1.18-5.22,4.65-5.47,8.35-.39,5.55,2.24,8.37,5.05,8.56,6.93.48,8.21-12.7,2.57-13.09-1.82-.13-3.37,1.63-3.63,3.36h-.17c.49-3.59,3.38-5.95,7.22-5.09,3.37.75,5.05.56,5.82-2.18l.21.09Z"/></g></svg>